<svg width="19" height="21" viewBox="0 0 19 21" fill="none" xmlns="http://www.w3.org/2000/svg">
<path fill-rule="evenodd" clip-rule="evenodd" d="M15.4066 7.01653C15.4173 7.7991 15.2724 8.576 14.9804 9.30211C14.6883 10.0282 14.2549 10.6891 13.7053 11.2463C13.1557 11.8034 12.5009 12.2459 11.7788 12.5479C11.0568 12.8498 10.2819 13.0054 9.49929 13.0054C8.71665 13.0054 7.94181 12.8498 7.21977 12.5479C6.49773 12.2459 5.84289 11.8034 5.29328 11.2463C4.74368 10.6891 4.31026 10.0282 4.0182 9.30211C3.72615 8.576 3.58127 7.7991 3.592 7.01653C3.61328 5.46384 4.24502 3.98196 5.35054 2.89149C6.45606 1.80102 7.94646 1.18965 9.49929 1.18965C11.0521 1.18965 12.5425 1.80102 13.648 2.89149C14.7536 3.98196 15.3853 5.46384 15.4066 7.01653ZM11.643 13.7002C13.2363 13.1892 14.5946 12.1257 15.4729 10.7015C16.3513 9.27738 16.6919 7.58624 16.4332 5.93311C16.1746 4.27997 15.3339 2.77364 14.0626 1.68575C12.7913 0.597852 11.1731 0 9.49985 0C7.82661 0 6.20843 0.597852 4.93713 1.68575C3.66582 2.77364 2.82506 4.27997 2.56645 5.93311C2.30785 7.58624 2.64842 9.27738 3.52676 10.7015C4.40509 12.1257 5.76338 13.1892 7.35669 13.7002C5.79284 14.0316 4.32645 14.7191 3.07144 15.7093C1.81642 16.6994 0.806568 17.9656 0.120321 19.4094C0.0889844 19.4752 0.0709165 19.5465 0.0671484 19.6193C0.0633804 19.6921 0.0739862 19.7649 0.0983602 19.8336C0.122734 19.9023 0.160399 19.9655 0.209204 20.0196C0.258009 20.0738 0.316999 20.1178 0.382806 20.1491C0.448612 20.1804 0.519946 20.1985 0.592735 20.2023C0.665524 20.206 0.738342 20.1954 0.807033 20.1711C0.875723 20.1467 0.93894 20.109 0.993074 20.0602C1.04721 20.0114 1.0912 19.9524 1.12254 19.8866C1.87403 18.3009 3.06026 16.9612 4.54327 16.0232C6.02628 15.0852 7.74511 14.5876 9.49985 14.5881C13.1968 14.5881 16.3899 16.7523 17.8783 19.8844C17.9435 20.0138 18.0568 20.1125 18.1939 20.1595C18.331 20.2065 18.481 20.198 18.6119 20.1358C18.7428 20.0736 18.8442 19.9627 18.8944 19.8267C18.9446 19.6908 18.9396 19.5406 18.8805 19.4083C18.1941 17.9643 17.1841 16.6981 15.9289 15.7079C14.6737 14.7178 13.2071 14.0315 11.643 13.7002Z" fill="#3349E8"/>
</svg>
