<svg width="8" height="15" viewBox="0 0 8 15" fill="none" xmlns="http://www.w3.org/2000/svg">
<path d="M7.76788 13.5901C7.84147 13.6668 7.89985 13.7579 7.93967 13.8581C7.9795 13.9583 8 14.0657 8 14.1741C8 14.2826 7.9795 14.39 7.93967 14.4902C7.89985 14.5904 7.84147 14.6814 7.76788 14.7581C7.69429 14.8348 7.60692 14.8956 7.51077 14.9371C7.41461 14.9786 7.31156 15 7.20748 15C7.10341 15 7.00035 14.9786 6.9042 14.9371C6.80805 14.8956 6.72068 14.8348 6.64709 14.7581L0.242599 8.08399C0.166016 8.00909 0.104978 7.91862 0.0632521 7.81818C0.0215265 7.71774 1.44217e-07 7.60945 1.49002e-07 7.5C1.53786e-07 7.39055 0.0215265 7.28226 0.0632521 7.18182C0.104978 7.08138 0.166016 6.99091 0.242599 6.91601L6.64709 0.241895C6.79572 0.087012 6.9973 -4.94828e-08 7.20748 -3.4642e-08C7.41767 -1.98011e-08 7.61925 0.0870121 7.76788 0.241895C7.9165 0.396777 8 0.606843 8 0.82588C8 1.04492 7.9165 1.25498 7.76788 1.40987L1.93979 7.5L7.76788 13.5901Z" fill="#3349E8"/>
</svg>
