<svg width="28" height="28" viewBox="0 0 28 28" fill="none" xmlns="http://www.w3.org/2000/svg">
<path d="M12.7571 2.26227C13.4851 1.68482 14.5149 1.68482 15.2429 2.26227L16.1202 2.95814C16.8728 3.55514 17.8152 3.86134 18.775 3.82074L19.8937 3.77342C20.8221 3.73416 21.6552 4.33947 21.9048 5.23453L22.2055 6.31315C22.4635 7.23853 23.0459 8.04015 23.8463 8.57147L24.7792 9.19078C25.5533 9.7047 25.8715 10.6841 25.5473 11.5549L25.1566 12.6043C24.8214 13.5046 24.8214 14.4954 25.1566 15.3957L25.5473 16.4451C25.8715 17.3159 25.5533 18.2953 24.7792 18.8092L23.8463 19.4285C23.0459 19.9598 22.4635 20.7615 22.2055 21.6868L21.9048 22.7655C21.6552 23.6605 20.8221 24.2658 19.8937 24.2266L18.775 24.1793C17.8152 24.1387 16.8728 24.4449 16.1202 25.0419L15.2429 25.7377C14.5149 26.3152 13.4851 26.3152 12.7571 25.7377L11.8798 25.0419C11.1272 24.4449 10.1848 24.1387 9.22501 24.1793L8.10626 24.2266C7.17789 24.2658 6.34475 23.6605 6.09521 22.7655L5.7945 21.6868C5.53651 20.7615 4.9541 19.9598 4.15374 19.4285L3.22083 18.8092C2.44668 18.2953 2.12846 17.3159 2.45268 16.4451L2.8434 15.3957C3.1786 14.4954 3.1786 13.5046 2.8434 12.6043L2.45268 11.5549C2.12846 10.6841 2.44668 9.7047 3.22083 9.19078L4.15374 8.57147C4.9541 8.04015 5.53651 7.23853 5.7945 6.31315L6.09521 5.23453C6.34475 4.33947 7.17789 3.73416 8.10626 3.77342L9.22501 3.82074C10.1848 3.86134 11.1272 3.55514 11.8798 2.95814L12.7571 2.26227Z" stroke="#666875" stroke-width="2"/>
<path fill-rule="evenodd" clip-rule="evenodd" d="M19.018 12.6179H18.9715V14.8391H19.018C19.1448 14.8474 19.2718 14.8274 19.3913 14.7804C19.5107 14.7333 19.62 14.6603 19.7124 14.5657C19.8048 14.4711 19.8784 14.357 19.9286 14.2303C19.9788 14.1037 20.0046 13.9673 20.0043 13.8294V13.6578C20.0085 13.5174 19.9855 13.3777 19.9371 13.2474C19.8886 13.1172 19.8156 12.9994 19.7228 12.9016C19.6299 12.8037 19.5193 12.7279 19.398 12.679C19.2766 12.6302 19.1472 12.6094 19.018 12.6179ZM17.9758 18.1003V9.39705L13.4163 12.0423V15.3641L17.9758 18.1003ZM12.3927 15.2127V12.2948H8.99628C8.91149 12.2947 8.83003 12.3306 8.76921 12.3947C8.7084 12.4588 8.67302 12.5461 8.6706 12.638V14.829C8.67302 14.921 8.7084 15.0083 8.76921 15.0724C8.83003 15.1365 8.91149 15.1723 8.99628 15.1723L12.3927 15.2127ZM11.2016 18.6657V16.2021H10.0943V18.6657C10.1184 18.8038 10.1868 18.9281 10.2872 19.0168C10.3877 19.1055 10.5138 19.1528 10.6433 19.1503C10.7739 19.1532 10.9013 19.1063 11.0033 19.0177C11.1053 18.9292 11.1755 18.8046 11.2016 18.6657ZM6.94913 13.7285C6.95394 13.8535 7.00311 13.9716 7.08635 14.0582C7.1696 14.1447 7.28048 14.193 7.39578 14.1929H7.67494V13.2741H7.39578C7.28134 13.2714 7.17047 13.3174 7.08697 13.4024C7.00346 13.4873 6.95397 13.6044 6.94913 13.7285ZM18.7202 8.0744C18.793 8.11881 18.8537 8.18327 18.8962 8.26127C18.9387 8.33927 18.9614 8.42805 18.9622 8.51865V11.5476H19.018C19.526 11.5366 20.0178 11.7417 20.3882 12.119C20.7586 12.4964 20.9782 13.0161 21 13.5669V13.7184C20.9952 13.9955 20.94 14.2689 20.8378 14.5229C20.7356 14.7769 20.5882 15.0066 20.4042 15.1988C20.2201 15.391 20.003 15.542 19.7651 15.6431C19.5273 15.7442 19.2734 15.7935 19.018 15.7882H18.9622V18.8676C18.9614 18.9582 18.9387 19.047 18.8962 19.125C18.8537 19.203 18.793 19.2675 18.7202 19.3119C18.6453 19.3588 18.5602 19.3836 18.4736 19.3836C18.3871 19.3836 18.302 19.3588 18.227 19.3119L12.737 16.1012H12.1694V18.5647C12.112 18.9646 11.9248 19.329 11.6415 19.5921C11.3583 19.8553 10.9976 20 10.6247 20C10.2518 20 9.89112 19.8553 9.60787 19.5921C9.32461 19.329 9.1374 18.9646 9.08002 18.5647V16.2021H8.99628C8.71477 16.2023 8.44067 16.1043 8.21446 15.9225C7.98825 15.7407 7.82193 15.4847 7.74007 15.1925H7.39578C7.0256 15.1925 6.67057 15.0329 6.40881 14.7489C6.14705 14.4649 6 14.0797 6 13.678C6 13.2763 6.14705 12.8911 6.40881 12.6071C6.67057 12.3231 7.0256 12.1635 7.39578 12.1635H7.74007C7.82323 11.8721 7.98988 11.6171 8.2158 11.4355C8.44172 11.2539 8.71513 11.1552 8.99628 11.1539H12.7184L18.2084 8.0744C18.2862 8.02566 18.3745 8 18.4643 8C18.5542 8 18.6424 8.02566 18.7202 8.0744Z" fill="#666875" stroke="#666875" stroke-width="0.5"/>
</svg>
