<svg width="28" height="28" viewBox="0 0 28 28" fill="none" xmlns="http://www.w3.org/2000/svg">
<path d="M19.2104 24.25H5.78958C3.00735 24.25 0.75 21.9926 0.75 19.2104V5.78958C0.75 3.00735 3.00735 0.75 5.78958 0.75H19.2104C21.9926 0.75 24.25 3.00735 24.25 5.78958V19.2104C24.25 21.9926 21.9926 24.25 19.2104 24.25Z" stroke="black" stroke-width="1.5"/>
<path d="M9.2241 10.706C9.2241 12.1296 9.19764 13.5585 9.22939 14.9821C9.27173 16.7285 10.5895 18.078 12.3041 18.1944C13.9182 18.3055 15.4053 17.0672 15.6964 15.3737C15.9663 13.7808 14.9449 12.1614 13.3625 11.6957C12.7063 11.5051 12.0448 11.521 11.3992 11.7486C10.8329 11.9497 10.3937 11.8227 10.1661 11.2405C9.97558 10.7537 10.2402 10.2985 10.8594 10.0974C12.7857 9.47826 14.5162 9.85929 15.9398 11.2829C17.4428 12.7911 17.8238 14.6328 17.1094 16.6226C16.4214 18.5331 15.0031 19.6868 12.9603 19.8773C9.99146 20.1525 7.58354 17.9933 7.50945 14.9609C7.43536 12.0873 7.48299 9.21365 7.49358 6.34002C7.49358 5.69439 7.85873 5.27631 8.36148 5.31335C8.98596 5.36098 9.21352 5.77906 9.21352 6.36119C9.21352 7.81124 9.21352 9.25599 9.21352 10.706C9.2241 10.706 9.2241 10.706 9.2241 10.706Z" fill="black"/>
</svg>
