<svg width="12" height="8" viewBox="0 0 12 8" fill="none" xmlns="http://www.w3.org/2000/svg">
<path d="M10.8666 0.866639C10.9278 0.805356 11.0006 0.756743 11.0807 0.723577C11.1607 0.69041 11.2466 0.67334 11.3332 0.67334C11.4199 0.67334 11.5057 0.69041 11.5858 0.723577C11.6659 0.756743 11.7386 0.805356 11.7999 0.866639C11.8612 0.927923 11.9098 1.00068 11.943 1.08075C11.9761 1.16082 11.9932 1.24664 11.9932 1.33331C11.9932 1.41997 11.9761 1.50579 11.943 1.58587C11.9098 1.66594 11.8612 1.73869 11.7999 1.79997L6.46656 7.13331C6.40671 7.19708 6.33441 7.24791 6.25415 7.28266C6.17389 7.3174 6.08735 7.33533 5.99989 7.33533C5.91243 7.33533 5.8259 7.3174 5.74563 7.28266C5.66537 7.24791 5.59308 7.19708 5.53322 7.13331L0.199891 1.79997C0.0761237 1.67621 0.00659179 1.50834 0.0065918 1.33331C0.0065918 1.15827 0.0761237 0.990407 0.199891 0.866639C0.323659 0.742872 0.491524 0.67334 0.666558 0.67334C0.841592 0.67334 1.00946 0.742872 1.13323 0.866639L5.99989 5.71997L10.8666 0.866639Z" fill="black"/>
</svg>
