<svg width="19" height="18" viewBox="0 0 19 18" fill="none" xmlns="http://www.w3.org/2000/svg">
<path d="M9.91234 8.79219V4.50019C9.9142 4.43414 9.90187 4.36842 9.87612 4.30717C9.85037 4.24591 9.81175 4.19042 9.76268 4.14419C9.71427 4.09746 9.65654 4.06061 9.59296 4.03587C9.52939 4.01112 9.46127 3.99899 9.3927 4.00019C9.32405 3.9984 9.25576 4.01026 9.19209 4.03504C9.12843 4.05982 9.07077 4.09698 9.02272 4.14419C8.97434 4.19086 8.93623 4.24645 8.9107 4.30762C8.88516 4.36879 8.87272 4.43429 8.87411 4.50019V8.87919C8.87411 8.98053 8.89351 9.07953 8.9323 9.17619C8.97617 9.2795 9.04202 9.37283 9.12561 9.45019L12.815 13.0002C12.9097 13.0932 13.0383 13.147 13.1736 13.1502C13.2438 13.1527 13.3138 13.1406 13.3787 13.1147C13.4436 13.0888 13.502 13.0498 13.5498 13.0002C13.6006 12.9548 13.6416 12.9002 13.6701 12.8394C13.6987 12.7786 13.7143 12.7129 13.7161 12.6462C13.7143 12.5795 13.6987 12.5138 13.6701 12.453C13.6416 12.3922 13.6006 12.3375 13.5498 12.2922L9.91234 8.79219ZM9.39582 18.0002C8.14222 18.0069 6.90057 17.7656 5.74798 17.2912C4.63941 16.8384 3.63091 16.1861 2.7767 15.3692C1.92687 14.5481 1.24784 13.5784 0.776107 12.5122C0.281789 11.4039 0.0309249 10.2092 0.0392638 9.00319C0.0392638 7.75919 0.284532 6.58919 0.775068 5.49319C1.24626 4.42635 1.92494 3.45595 2.77462 2.63419C3.62764 1.81658 4.63507 1.16321 5.74278 0.709194C6.89461 0.233555 8.13619 -0.00783008 9.38958 0.000193663C10.6824 0.000193663 11.8984 0.236194 13.0374 0.708194C14.1462 1.16158 15.1547 1.81462 16.0087 2.63219C16.8584 3.45298 17.5375 4.42234 18.0093 5.48819C18.5036 6.5965 18.7545 7.79116 18.7461 8.99719C18.7531 10.2034 18.5023 11.3982 18.0093 12.5072C17.5387 13.5739 16.8608 14.5443 16.0118 15.3662C15.1585 16.1839 14.1507 16.8373 13.0426 17.2912C11.8903 17.7655 10.6491 18.0068 9.39582 18.0002ZM9.3927 17.0002C11.6964 17.0002 13.6582 16.2212 15.2781 14.6632C16.898 13.1052 17.7076 11.2175 17.7069 9.00019C17.7062 6.78286 16.8966 4.89553 15.2781 3.33819C13.6596 1.78086 11.6978 1.00153 9.3927 1.00019C7.0876 0.99886 5.12615 1.77819 3.50835 3.33819C1.89055 4.89819 1.08061 6.78553 1.07853 9.00019C1.07646 11.2149 1.88639 13.1025 3.50835 14.6632C5.13031 16.2239 7.09176 17.0029 9.3927 17.0002Z" fill="#666875"/>
</svg>
