<svg width="15" height="16" viewBox="0 0 15 16" fill="none" xmlns="http://www.w3.org/2000/svg">
<path fill-rule="evenodd" clip-rule="evenodd" d="M7.46786 6.72277L13.8979 0.35707C13.9578 0.297118 14.029 0.249561 14.1073 0.217115C14.1857 0.184669 14.2696 0.167969 14.3544 0.167969C14.4392 0.167969 14.5231 0.184669 14.6015 0.217115C14.6798 0.249561 14.751 0.297118 14.8109 0.35707C14.8709 0.417023 14.9184 0.488196 14.9509 0.566528C14.9833 0.644859 15 0.728815 15 0.8136C15 0.898386 14.9833 0.982341 14.9509 1.06067C14.9184 1.139 14.8709 1.21018 14.8109 1.27013L8.44523 7.70013L14.7466 14.0658C14.8066 14.1258 14.8541 14.197 14.8866 14.2753C14.919 14.3536 14.9357 14.4376 14.9357 14.5224C14.9357 14.6072 14.919 14.6911 14.8866 14.7694C14.8541 14.8478 14.8066 14.9189 14.7466 14.9789C14.6867 15.0388 14.6155 15.0864 14.5372 15.1189C14.4588 15.1513 14.3749 15.168 14.2901 15.168C14.2053 15.168 14.1214 15.1513 14.043 15.1189C13.9647 15.0864 13.8935 15.0388 13.8336 14.9789L7.46786 8.54889L1.10216 14.9146C0.982016 14.9922 0.839406 15.0276 0.696899 15.0151C0.554392 15.0026 0.420127 14.9429 0.31535 14.8455C0.210572 14.7481 0.141267 14.6186 0.118401 14.4773C0.095535 14.3361 0.120414 14.1913 0.189101 14.0658L6.5548 7.63583L0.189101 1.27013C0.068022 1.14905 0 0.984832 0 0.8136C0 0.642368 0.068022 0.478149 0.189101 0.35707C0.310181 0.235991 0.4744 0.167969 0.645632 0.167969C0.816864 0.167969 0.981082 0.235991 1.10216 0.35707L7.46786 6.72277Z" fill="#3349E8"/>
</svg>
