<svg width="85" height="43" viewBox="0 0 85 43" fill="none" xmlns="http://www.w3.org/2000/svg">
<rect x="0.5" y="0.5" width="84" height="41.5" rx="4.5" stroke="#F0F1FA"/>
<path d="M65.6416 18.5466C65.8659 18.3223 66.2295 18.3223 66.4538 18.5466C66.6781 18.7709 66.6781 19.1346 66.4538 19.3589L61.8592 23.9534C61.6349 24.1777 61.2713 24.1777 61.047 23.9534L56.4524 19.3589C56.2281 19.1346 56.2281 18.7709 56.4524 18.5466C56.6767 18.3223 57.0403 18.3223 57.2646 18.5466L61.4531 22.7351L65.6416 18.5466Z" fill="#3349E8"/>
<path fill-rule="evenodd" clip-rule="evenodd" d="M22.9717 11.9865C22.9717 11.7103 23.1956 11.4865 23.4717 11.4865H23.6204C23.8965 11.4865 24.1204 11.7103 24.1204 11.9865V13.2095H24.1207V14.3581H24.1204V15.581C24.1204 15.8572 23.8965 16.081 23.6204 16.081H23.4717C23.1956 16.081 22.9717 15.8572 22.9717 15.581V15.0282C22.972 15.0211 22.9722 15.014 22.9722 15.0068V12.5609C22.9722 12.5537 22.972 12.5466 22.9717 12.5395V11.9865ZM25.2694 14.3581H29.8637V13.2095H25.2694V14.3581ZM31.0119 15.581V15.0282C31.0122 15.0211 31.0124 15.014 31.0124 15.0068V12.5609C31.0124 12.5537 31.0122 12.5466 31.0119 12.5395V11.9865C31.0119 11.7103 31.2358 11.4865 31.5119 11.4865H31.6606C31.9367 11.4865 32.1606 11.7103 32.1606 11.9865V13.2095H32.1619V14.3581H32.1606V15.581C32.1606 15.8572 31.9367 16.081 31.6606 16.081H31.5119C31.2358 16.081 31.0119 15.8572 31.0119 15.581ZM33.3105 14.3581H34.3696C35.0528 14.3581 35.6066 14.8328 35.6066 15.4183V27.0815C35.6066 27.6671 35.0528 28.1418 34.3696 28.1418H20.7626C20.0794 28.1418 19.5255 27.6671 19.5255 27.0815V15.4183C19.5255 14.8328 20.0794 14.3581 20.7626 14.3581H21.8235V13.2095H20.8274C19.4741 13.2095 18.377 14.1694 18.377 15.3536V27.1464C18.377 28.3306 19.4741 29.2905 20.8274 29.2905H34.3049C35.6582 29.2905 36.7553 28.3306 36.7553 27.1464V15.3536C36.7553 14.1694 35.6582 13.2095 34.3049 13.2095H33.3105V14.3581ZM21.2488 25.7703C21.2488 25.4942 21.4727 25.2703 21.7488 25.2703H33.384C33.6601 25.2703 33.884 25.4942 33.884 25.7703V25.919C33.884 26.1951 33.6601 26.419 33.384 26.419H21.7488C21.4727 26.419 21.2488 26.1951 21.2488 25.919V25.7703ZM21.7488 17.2297C21.4727 17.2297 21.2488 17.4535 21.2488 17.7297V17.8783C21.2488 18.1545 21.4727 18.3783 21.7488 18.3783H33.384C33.6601 18.3783 33.884 18.1545 33.884 17.8783V17.7297C33.884 17.4535 33.6601 17.2297 33.384 17.2297H21.7488Z" fill="#3349E8"/>
<rect x="21.25" y="17.2297" width="1.14865" height="9.18919" rx="0.574324" fill="#3349E8"/>
<rect x="26.9922" y="17.2297" width="1.14865" height="9.18919" rx="0.574324" fill="#3349E8"/>
<rect x="32.7363" y="17.2297" width="1.14865" height="9.18919" rx="0.574324" fill="#3349E8"/>
</svg>
