<svg width="17" height="25" viewBox="0 0 17 25" fill="none" xmlns="http://www.w3.org/2000/svg">
<path d="M14.1662 0H2.83382C2.08236 0.000367969 1.3618 0.282722 0.830437 0.785024C0.299077 1.28733 0.000389255 1.96849 0 2.67885V24.1041C9.85033e-05 24.2808 0.0556043 24.4534 0.159498 24.6002C0.263391 24.747 0.411005 24.8614 0.583669 24.9289C0.756333 24.9963 0.946291 25.0139 1.12952 24.9793C1.31274 24.9448 1.48101 24.8596 1.61303 24.7346L8.16505 18.5409C8.23097 18.478 8.31527 18.4351 8.40715 18.4178C8.49902 18.4004 8.59428 18.4095 8.68069 18.4437C8.73829 18.4656 8.79035 18.4987 8.83347 18.5409L15.3855 24.7346C15.5171 24.8608 15.6856 24.947 15.8693 24.9822C16.053 25.0174 16.2437 25.0001 16.417 24.9325C16.5902 24.8648 16.7382 24.7499 16.8421 24.6023C16.9459 24.4548 17.0009 24.2813 17 24.1041V2.68024C17 1.9694 16.7013 1.28767 16.1695 0.785025C15.6378 0.282382 14.9181 0 14.1662 0Z" fill="#666875"/>
</svg>
