<svg width="20" height="20" viewBox="0 0 20 20" fill="none" xmlns="http://www.w3.org/2000/svg">
<path d="M9.2375 13.75C9.40373 13.5851 9.62837 13.4926 9.8625 13.4926C10.0966 13.4926 10.3213 13.5851 10.4875 13.75C10.5707 13.8315 10.6367 13.9287 10.6818 14.036C10.7269 14.1434 10.7501 14.2586 10.7501 14.375C10.7501 14.4914 10.7269 14.6067 10.6818 14.714C10.6367 14.8213 10.5707 14.9185 10.4875 15C10.3213 15.1649 10.0966 15.2574 9.8625 15.2574C9.62837 15.2574 9.40373 15.1649 9.2375 15C9.15435 14.9185 9.08829 14.8213 9.0432 14.714C8.9981 14.6067 8.97488 14.4914 8.97488 14.375C8.97488 14.2586 8.9981 14.1434 9.0432 14.036C9.08829 13.9287 9.15435 13.8315 9.2375 13.75ZM9.05 12.175C9.04059 11.7242 9.11258 11.2753 9.2625 10.85C9.45002 10.4456 9.71307 10.0807 10.0375 9.775L11.05 8.825C11.249 8.64108 11.4091 8.41908 11.5207 8.17216C11.6324 7.92523 11.6934 7.65841 11.7 7.3875C11.7091 7.17693 11.6738 6.96679 11.5962 6.7708C11.5187 6.5748 11.4007 6.39735 11.25 6.25C11.0821 6.09692 10.8845 5.98016 10.6694 5.90703C10.4543 5.8339 10.2264 5.80597 10 5.825C9.54626 5.81489 9.10354 5.96541 8.75 6.25C8.59765 6.3703 8.4754 6.52442 8.39295 6.70017C8.3105 6.87591 8.27012 7.06844 8.275 7.2625H6.875C6.87158 6.90858 6.94988 6.55865 7.10382 6.23994C7.25775 5.92123 7.48316 5.64235 7.7625 5.425C8.40358 4.93342 9.19226 4.67347 10 4.6875C10.8203 4.63564 11.6308 4.88947 12.275 5.4C12.5462 5.6474 12.7596 5.95149 12.9 6.29067C13.0405 6.62985 13.1045 6.9958 13.0875 7.3625C13.0579 7.83112 12.9315 8.28852 12.7164 8.70588C12.5013 9.12324 12.202 9.49152 11.8375 9.7875L11 10.55C10.8016 10.7715 10.6496 11.0305 10.5529 11.3118C10.4563 11.593 10.4171 11.8908 10.4375 12.1875L9.05 12.175ZM10 18.75C11.7306 18.75 13.4223 18.2368 14.8612 17.2754C16.3002 16.3139 17.4217 14.9473 18.0839 13.3485C18.7462 11.7496 18.9195 9.9903 18.5819 8.29296C18.2443 6.59563 17.4109 5.03653 16.1872 3.81282C14.9635 2.58911 13.4044 1.75575 11.707 1.41813C10.0097 1.08051 8.25038 1.25379 6.65152 1.91606C5.05267 2.57832 3.68611 3.69983 2.72464 5.13876C1.76318 6.57769 1.25 8.26942 1.25 10C1.25 12.3206 2.17188 14.5462 3.81282 16.1872C5.45376 17.8281 7.67936 18.75 10 18.75ZM10 20C8.02219 20 6.08879 19.4135 4.4443 18.3147C2.79981 17.2159 1.51809 15.6541 0.761209 13.8268C0.00433281 11.9996 -0.1937 9.98891 0.192152 8.0491C0.578004 6.10929 1.53041 4.32746 2.92894 2.92894C4.32746 1.53041 6.10929 0.578004 8.0491 0.192152C9.98891 -0.1937 11.9996 0.00433281 13.8268 0.761209C15.6541 1.51809 17.2159 2.79981 18.3147 4.4443C19.4135 6.08879 20 8.02219 20 10C20 12.6522 18.9464 15.1957 17.0711 17.0711C15.1957 18.9464 12.6522 20 10 20Z" fill="#3349E8"/>
</svg>
