<svg width="20" height="20" viewBox="0 0 20 20" fill="none" xmlns="http://www.w3.org/2000/svg">
<path d="M10 4.375C10.1854 4.375 10.3667 4.42999 10.5208 4.533C10.675 4.63601 10.7952 4.78243 10.8661 4.95374C10.9371 5.12504 10.9557 5.31354 10.9195 5.4954C10.8833 5.67726 10.794 5.8443 10.6629 5.97542C10.5318 6.10653 10.3648 6.19582 10.1829 6.23199C10.001 6.26816 9.81254 6.2496 9.64124 6.17864C9.46993 6.10768 9.32351 5.98752 9.2205 5.83335C9.11749 5.67918 9.0625 5.49792 9.0625 5.3125C9.06574 5.06487 9.16555 4.82829 9.34067 4.65317C9.51579 4.47805 9.75237 4.37824 10 4.375ZM10 7.5C10.1658 7.5 10.3247 7.56585 10.4419 7.68306C10.5592 7.80027 10.625 7.95924 10.625 8.125V15.625C10.625 15.7908 10.5592 15.9497 10.4419 16.0669C10.3247 16.1842 10.1658 16.25 10 16.25C9.83424 16.25 9.67527 16.1842 9.55806 16.0669C9.44085 15.9497 9.375 15.7908 9.375 15.625V8.125C9.375 7.95924 9.44085 7.80027 9.55806 7.68306C9.67527 7.56585 9.83424 7.5 10 7.5ZM10 18.75C11.7306 18.75 13.4223 18.2368 14.8612 17.2754C16.3002 16.3139 17.4217 14.9473 18.0839 13.3485C18.7462 11.7496 18.9195 9.9903 18.5819 8.29296C18.2443 6.59563 17.4109 5.03653 16.1872 3.81282C14.9635 2.58911 13.4044 1.75575 11.707 1.41813C10.0097 1.08051 8.25038 1.25379 6.65152 1.91606C5.05267 2.57832 3.68611 3.69983 2.72464 5.13876C1.76318 6.57769 1.25 8.26942 1.25 10C1.25 12.3206 2.17188 14.5462 3.81282 16.1872C5.45376 17.8281 7.67936 18.75 10 18.75ZM10 20C8.02219 20 6.08879 19.4135 4.4443 18.3147C2.79981 17.2159 1.51809 15.6541 0.761209 13.8268C0.00433281 11.9996 -0.1937 9.98891 0.192152 8.0491C0.578004 6.10929 1.53041 4.32746 2.92894 2.92894C4.32746 1.53041 6.10929 0.578004 8.0491 0.192152C9.98891 -0.1937 11.9996 0.00433281 13.8268 0.761209C15.6541 1.51809 17.2159 2.79981 18.3147 4.4443C19.4135 6.08879 20 8.02219 20 10C20 12.6522 18.9464 15.1957 17.0711 17.0711C15.1957 18.9464 12.6522 20 10 20Z" fill="#3349E8"/>
</svg>
