<svg width="22" height="20" viewBox="0 0 22 20" fill="none" xmlns="http://www.w3.org/2000/svg">
<path d="M11 1.41667H3.23665C2.86093 1.41667 2.5006 1.56592 2.23492 1.8316C1.96924 2.09728 1.81999 2.45761 1.81999 2.83333V17C1.81999 17.3757 1.96924 17.7361 2.23492 18.0017C2.5006 18.2674 2.86093 18.4167 3.23665 18.4167H11C11.1878 18.4167 11.368 18.4913 11.5009 18.6241C11.6337 18.757 11.7083 18.9371 11.7083 19.125C11.7083 19.3129 11.6337 19.493 11.5009 19.6259C11.368 19.7587 11.1878 19.8333 11 19.8333H3.23665C2.48521 19.8333 1.76454 19.5348 1.23318 19.0035C0.701831 18.4721 0.40332 17.7514 0.40332 17V2.83333C0.40332 2.08189 0.701831 1.36122 1.23318 0.829864C1.76454 0.298511 2.48521 0 3.23665 0H11C11.1878 0 11.368 0.0746279 11.5009 0.207466C11.6337 0.340304 11.7083 0.520472 11.7083 0.708333C11.7083 0.896195 11.6337 1.07636 11.5009 1.2092C11.368 1.34204 11.1878 1.41667 11 1.41667ZM21.37 9.40667C21.5007 9.54146 21.5738 9.72184 21.5738 9.90958C21.5738 10.0973 21.5007 10.2777 21.37 10.4125L16.3833 15.4275C16.2509 15.5573 16.0729 15.63 15.8875 15.63C15.7021 15.63 15.5241 15.5573 15.3917 15.4275C15.3253 15.3617 15.2726 15.2833 15.2366 15.197C15.2006 15.1107 15.1821 15.0181 15.1821 14.9246C15.1821 14.8311 15.2006 14.7385 15.2366 14.6522C15.2726 14.5659 15.3253 14.4875 15.3917 14.4217L19.1883 10.625H7.38749C7.21216 10.6074 7.04969 10.525 6.93181 10.3941C6.81393 10.2631 6.7491 10.0929 6.74999 9.91667C6.74999 9.72881 6.82461 9.54864 6.95745 9.4158C7.09029 9.28296 7.27046 9.20833 7.45832 9.20833H19.2592L15.3917 5.41167C15.3253 5.34582 15.2726 5.26748 15.2366 5.18116C15.2006 5.09484 15.1821 5.00226 15.1821 4.90875C15.1821 4.81524 15.2006 4.72266 15.2366 4.63634C15.2726 4.55002 15.3253 4.47168 15.3917 4.40583C15.4552 4.33807 15.5321 4.28407 15.6173 4.24715C15.7026 4.21023 15.7946 4.19118 15.8875 4.19118C15.9804 4.19118 16.0724 4.21023 16.1576 4.24715C16.2429 4.28407 16.3197 4.33807 16.3833 4.40583L21.37 9.40667Z" fill="#3349E8"/>
</svg>
