<svg width="25" height="25" viewBox="0 0 25 25" fill="none" xmlns="http://www.w3.org/2000/svg">
<path fill-rule="evenodd" clip-rule="evenodd" d="M5.20866 15.625H19.792C20.0683 15.625 20.3332 15.7347 20.5286 15.9301C20.7239 16.1254 20.8337 16.3904 20.8337 16.6666C20.8337 16.9429 20.7239 17.2078 20.5286 17.4032C20.3332 17.5985 20.0683 17.7083 19.792 17.7083H5.20866C4.93239 17.7083 4.66744 17.5985 4.47209 17.4032C4.27674 17.2078 4.16699 16.9429 4.16699 16.6666C4.16699 16.3904 4.27674 16.1254 4.47209 15.9301C4.66744 15.7347 4.93239 15.625 5.20866 15.625ZM5.20866 11.4583H19.792C20.0683 11.4583 20.3332 11.568 20.5286 11.7634C20.7239 11.9587 20.8337 12.2237 20.8337 12.5C20.8337 12.7762 20.7239 13.0412 20.5286 13.2365C20.3332 13.4319 20.0683 13.5416 19.792 13.5416H5.20866C4.93239 13.5416 4.66744 13.4319 4.47209 13.2365C4.27674 13.0412 4.16699 12.7762 4.16699 12.5C4.16699 12.2237 4.27674 11.9587 4.47209 11.7634C4.66744 11.568 4.93239 11.4583 5.20866 11.4583ZM5.20866 7.29163H19.792C20.0683 7.29163 20.3332 7.40137 20.5286 7.59672C20.7239 7.79207 20.8337 8.05703 20.8337 8.33329C20.8337 8.60956 20.7239 8.87451 20.5286 9.06986C20.3332 9.26521 20.0683 9.37496 19.792 9.37496H5.20866C4.93239 9.37496 4.66744 9.26521 4.47209 9.06986C4.27674 8.87451 4.16699 8.60956 4.16699 8.33329C4.16699 8.05703 4.27674 7.79207 4.47209 7.59672C4.66744 7.40137 4.93239 7.29163 5.20866 7.29163Z" fill="#666875"/>
</svg>
