<svg width="24" height="24" viewBox="0 0 24 24" fill="none" xmlns="http://www.w3.org/2000/svg">
<path d="M12 20C10.4178 20 8.87103 19.5308 7.55544 18.6518C6.23985 17.7727 5.21447 16.5233 4.60897 15.0615C4.00347 13.5997 3.84504 11.9911 4.15372 10.4393C4.4624 8.88743 5.22433 7.46197 6.34315 6.34315C7.46197 5.22433 8.88743 4.4624 10.4393 4.15372C11.9911 3.84504 13.5997 4.00347 15.0615 4.60897C16.5233 5.21447 17.7727 6.23985 18.6518 7.55544C19.5308 8.87103 20 10.4178 20 12C20 14.1217 19.1571 16.1566 17.6569 17.6569C16.1566 19.1571 14.1217 20 12 20ZM17.75 8C16.9099 6.80121 15.7184 5.89275 14.34 5.4C15.062 6.1318 15.603 7.02212 15.92 8H17.75ZM18.33 9H16.2C16.3792 9.82168 16.4763 10.6591 16.49 11.5H19C18.934 10.6323 18.7068 9.78444 18.33 9ZM6.25 8H8.08C8.39741 7.02458 8.93454 6.13506 9.65 5.4C8.2762 5.89629 7.0889 6.80423 6.25 8ZM5.67 9C5.29321 9.78444 5.06599 10.6323 5 11.5H7.51C7.52366 10.6591 7.6208 9.82168 7.8 9H5.67ZM14.85 8C14.4581 6.94644 13.7353 6.04825 12.79 5.44L12.5 5.3V8H14.85ZM15.17 9H12.5V11.5H15.5C15.4812 10.6572 15.3705 9.81887 15.17 9ZM9.17 8H11.5V5.3L11.2 5.44C10.2569 6.04824 9.53739 6.9468 9.15 8H9.17ZM8.83 9C8.63285 9.81924 8.52555 10.6575 8.51 11.5H11.51V9H8.83ZM17.56 16.25H15.83C15.5117 17.1331 15.003 17.9354 14.34 18.6C15.6184 18.1453 16.7371 17.3289 17.56 16.25ZM18.2 15.25C18.6561 14.3994 18.9286 13.4625 19 12.5H16.49C16.474 13.4267 16.3567 14.3489 16.14 15.25H18.2ZM6.44 16.25C7.26021 17.3273 8.37524 18.1436 9.65 18.6C8.99436 17.9315 8.48969 17.1301 8.17 16.25H6.44ZM5.8 15.25H7.86C7.64334 14.3489 7.52597 13.4267 7.51 12.5H5C5.0714 13.4625 5.34394 14.3994 5.8 15.25ZM14.8 16.25H12.5V18.7L12.79 18.56C13.6635 18.0078 14.3474 17.2018 14.75 16.25H14.8ZM15.16 15.25C15.3954 14.3517 15.5229 13.4285 15.54 12.5H12.54V15.25H15.16ZM9.3 16.25C9.70161 17.1994 10.3815 18.0048 11.25 18.56L11.55 18.7V16.25H9.3ZM8.94 15.25H11.5V12.5H8.5C8.52035 13.4289 8.65127 14.3521 8.89 15.25H8.94Z" fill="#666875"/>
</svg>
