<svg width="31" height="23" viewBox="0 0 31 23" fill="none" xmlns="http://www.w3.org/2000/svg">
<path fill-rule="evenodd" clip-rule="evenodd" d="M26.9039 8.85088H26.8077V13.1083H26.9039C27.1659 13.1241 27.4285 13.0858 27.6753 12.9957C27.9221 12.9055 28.1479 12.7655 28.3389 12.5842C28.5299 12.4029 28.6819 12.1842 28.7857 11.9415C28.8895 11.6988 28.9428 11.4373 28.9423 11.1731V10.8441C28.9508 10.5751 28.9035 10.3072 28.8033 10.0576C28.7031 9.80803 28.5522 9.58223 28.3604 9.39464C28.1685 9.20705 27.9399 9.0618 27.6891 8.96817C27.4383 8.87454 27.1709 8.8346 26.9039 8.85088ZM24.75 19.3589V2.67768L15.3269 7.74783V14.1146L24.75 19.3589ZM13.2115 13.8243V8.23163H6.19231C6.01708 8.23156 5.84873 8.30025 5.72304 8.42312C5.59736 8.54598 5.52424 8.71333 5.51923 8.88959V13.0889C5.52424 13.2652 5.59736 13.4325 5.72304 13.5554C5.84873 13.6783 6.01708 13.747 6.19231 13.7469L13.2115 13.8243ZM10.75 20.4426V15.7208H8.46154V20.4426C8.5114 20.7072 8.65263 20.9456 8.86025 21.1156C9.06788 21.2855 9.32854 21.3762 9.59615 21.3715C9.86609 21.3769 10.1294 21.287 10.3402 21.1173C10.551 20.9475 10.6961 20.7088 10.75 20.4426ZM1.96154 10.9796C1.97147 11.2192 2.07309 11.4456 2.24513 11.6115C2.41718 11.7774 2.64632 11.87 2.88462 11.8698H3.46154V10.1087H2.88462C2.64811 10.1035 2.41898 10.1917 2.2464 10.3545C2.07382 10.5173 1.97155 10.7417 1.96154 10.9796ZM26.2885 0.142596C26.4389 0.227712 26.5643 0.351259 26.6521 0.500761C26.7399 0.650263 26.7869 0.820427 26.7885 0.994073V6.7996H26.9039C27.9537 6.7784 28.9702 7.17152 29.7357 7.89484C30.5012 8.61815 30.955 9.61423 31 10.6699V10.9602C30.99 11.4914 30.8761 12.0154 30.6648 12.5022C30.4535 12.9891 30.149 13.4293 29.7686 13.7977C29.3882 14.1661 28.9395 14.4555 28.4479 14.6493C27.9564 14.8431 27.4317 14.9376 26.9039 14.9273H26.7885V20.8296C26.7869 21.0033 26.7399 21.1734 26.6521 21.3229C26.5643 21.4724 26.4389 21.596 26.2885 21.6811C26.1335 21.7711 25.9578 21.8185 25.7788 21.8185C25.5999 21.8185 25.4242 21.7711 25.2692 21.6811L13.9231 15.5272H12.75V20.2491C12.6314 21.0154 12.2445 21.7138 11.6591 22.2183C11.0737 22.7227 10.3284 23 9.55769 23C8.78698 23 8.04165 22.7227 7.45626 22.2183C6.87086 21.7138 6.48395 21.0154 6.36539 20.2491V15.7208H6.19231C5.61052 15.7211 5.04404 15.5332 4.57654 15.1847C4.10905 14.8363 3.76533 14.3457 3.59615 13.7856H2.88462C2.11957 13.7856 1.38585 13.4798 0.844884 12.9354C0.303914 12.391 0 11.6527 0 10.8828C0 10.113 0.303914 9.37463 0.844884 8.83025C1.38585 8.28588 2.11957 7.98005 2.88462 7.98005H3.59615C3.76801 7.42151 4.11242 6.9327 4.57932 6.58467C5.04622 6.23664 5.61127 6.04754 6.19231 6.04488H13.8846L25.2308 0.142596C25.3916 0.0491797 25.574 0 25.7596 0C25.9453 0 26.1277 0.0491797 26.2885 0.142596Z" fill="#666875"/>
</svg>
