<svg width="26" height="26" viewBox="0 0 26 26" fill="none" xmlns="http://www.w3.org/2000/svg">
<mask id="mask0_315_1868" style="mask-type:luminance" maskUnits="userSpaceOnUse" x="0" y="0" width="26" height="26">
<path d="M0 0H26V26H0V0Z" fill="white"/>
</mask>
<g mask="url(#mask0_315_1868)">
<path fill-rule="evenodd" clip-rule="evenodd" d="M15.3532 11.7983C16.9679 11.1294 18.7822 11.1294 20.3969 11.7982C22.0117 12.467 23.2946 13.7499 23.9635 15.3646C24.6324 16.9794 24.6324 18.7937 23.9636 20.4084C23.2948 22.0232 22.0119 23.3061 20.3972 23.975C18.7824 24.6439 16.9681 24.6439 15.3534 23.9751C13.7386 23.3063 12.4557 22.0234 11.7868 20.4086C11.118 18.7939 11.1179 16.9796 11.7867 15.3649C12.4556 13.7501 13.7384 12.4672 15.3532 11.7983ZM17.8752 13.1026C17.24 13.0916 16.609 13.2072 16.019 13.4426C15.429 13.678 14.8918 14.0286 14.4388 14.4739C13.9857 14.9191 13.6258 15.4502 13.3802 16.036C13.1346 16.6218 13.008 17.2507 13.008 17.8859C13.008 18.5212 13.1346 19.15 13.3802 19.7359C13.6258 20.3217 13.9857 20.8527 14.4388 21.298C14.8918 21.7432 15.429 22.0938 16.019 22.3292C16.609 22.5647 17.24 22.6802 17.8752 22.6692C19.1294 22.6474 20.3249 22.1339 21.2041 21.2392C22.0834 20.3445 22.576 19.1403 22.576 17.8859C22.576 16.6315 22.0834 15.4273 21.2041 14.5326C20.3249 13.638 19.1294 13.1244 17.8752 13.1026Z" fill="#666875"/>
<path fill-rule="evenodd" clip-rule="evenodd" d="M21.2581 21.2694C21.3419 21.1856 21.4414 21.1191 21.551 21.0737C21.6605 21.0283 21.7779 21.0049 21.8965 21.0049C22.0151 21.0049 22.1325 21.0283 22.242 21.0737C22.3516 21.1191 22.4511 21.1856 22.535 21.2694L25.8268 24.5613C25.9107 24.6452 25.9772 24.7447 26.0226 24.8542C26.0679 24.9638 26.0913 25.0812 26.0913 25.1998C26.0913 25.3183 26.0679 25.4357 26.0226 25.5453C25.9772 25.6548 25.9107 25.7544 25.8268 25.8382C25.743 25.9221 25.6435 25.9886 25.5339 26.0339C25.4244 26.0793 25.307 26.1027 25.1884 26.1027C25.0698 26.1027 24.9524 26.0793 24.8429 26.0339C24.7333 25.9886 24.6338 25.9221 24.55 25.8382L21.2581 22.5463C21.1742 22.4625 21.1077 22.363 21.0623 22.2534C21.0169 22.1439 20.9936 22.0264 20.9936 21.9079C20.9936 21.7893 21.0169 21.6719 21.0623 21.5623C21.1077 21.4528 21.1742 21.3533 21.2581 21.2694ZM4.78562 11.3865C4.78562 10.8882 5.19007 10.4838 5.6884 10.4838H10.5634C10.8028 10.4838 11.0325 10.5789 11.2018 10.7482C11.3711 10.9175 11.4662 11.1471 11.4662 11.3865C11.4662 11.626 11.3711 11.8556 11.2018 12.0249C11.0325 12.1942 10.8028 12.2893 10.5634 12.2893H5.68696C5.44753 12.2893 5.2179 12.1942 5.0486 12.0249C4.87929 11.8556 4.78418 11.626 4.78418 11.3865M4.78562 15.4498C4.78562 14.9514 5.19007 14.547 5.6884 14.547H8.12518C8.36461 14.547 8.59424 14.6421 8.76354 14.8114C8.93284 14.9807 9.02796 15.2103 9.02796 15.4498C9.02796 15.6892 8.93284 15.9188 8.76354 16.0881C8.59424 16.2574 8.36461 16.3525 8.12518 16.3525H5.6884C5.44897 16.3525 5.21935 16.2574 5.05004 16.0881C4.88074 15.9188 4.78562 15.6892 4.78562 15.4498ZM4.78562 19.5115C4.78562 19.0132 5.19007 18.6088 5.6884 18.6088H8.12518C8.36461 18.6088 8.59424 18.7039 8.76354 18.8732C8.93284 19.0425 9.02796 19.2721 9.02796 19.5115C9.02796 19.751 8.93284 19.9806 8.76354 20.1499C8.59424 20.3192 8.36461 20.4143 8.12518 20.4143H5.6884C5.44897 20.4143 5.21935 20.3192 5.05004 20.1499C4.88074 19.9806 4.78562 19.751 4.78562 19.5115Z" fill="#666875"/>
<path fill-rule="evenodd" clip-rule="evenodd" d="M10.5634 1.7276C10.1484 1.72741 9.7375 1.80898 9.35406 1.96765C8.97063 2.12632 8.62221 2.35898 8.32872 2.65233C8.03522 2.94569 7.8024 3.294 7.64356 3.67737C7.48471 4.06073 7.40296 4.47163 7.40296 4.8866C7.40296 5.38493 6.99851 5.78937 6.50018 5.78937H2.4384C2.24686 5.78937 2.06316 5.86546 1.92771 6.00091C1.79227 6.13635 1.71618 6.32005 1.71618 6.5116V23.5748C1.71618 23.7664 1.79227 23.9501 1.92771 24.0855C2.06316 24.2209 2.24686 24.297 2.4384 24.297H10.5634C10.8028 24.297 11.0325 24.3922 11.2018 24.5615C11.3711 24.7308 11.4662 24.9604 11.4662 25.1998C11.4662 25.4392 11.3711 25.6689 11.2018 25.8382C11.0325 26.0075 10.8028 26.1026 10.5634 26.1026H2.43696C1.76655 26.1026 1.1236 25.8363 0.649548 25.3622C0.175498 24.8882 -0.0908203 24.2452 -0.0908203 23.5748V6.5116C-0.0908203 5.84119 0.175498 5.19824 0.649548 4.72419C1.1236 4.25014 1.76655 3.98382 2.43696 3.98382H5.67974C5.89182 2.84389 6.49609 1.81411 7.38781 1.07299C8.27953 0.331874 9.40247 -0.0738525 10.562 -0.0738525C11.7214 -0.0738525 12.8444 0.331874 13.7361 1.07299C14.6278 1.81411 15.2321 2.84389 15.4442 3.98382H18.6884C19.3588 3.98382 20.0018 4.25014 20.4758 4.72419C20.9499 5.19824 21.2162 5.84119 21.2162 6.5116V8.94982C21.2162 9.18925 21.1211 9.41887 20.9518 9.58818C20.7825 9.75748 20.5528 9.8526 20.3134 9.8526C20.074 9.8526 19.8443 9.75748 19.675 9.58818C19.5057 9.41887 19.4106 9.18925 19.4106 8.94982V6.5116C19.4106 6.32005 19.3345 6.13635 19.1991 6.00091C19.0636 5.86546 18.8799 5.78937 18.6884 5.78937H14.6252C14.3857 5.78937 14.1561 5.69426 13.9868 5.52496C13.8175 5.35565 13.7224 5.12603 13.7224 4.8866C13.7213 4.04913 13.3881 3.24629 12.7959 2.65411C12.2037 2.06193 11.4009 1.72874 10.5634 1.7276Z" fill="#666875"/>
<path fill-rule="evenodd" clip-rule="evenodd" d="M10.5635 3.172C10.2165 3.172 9.88361 3.30987 9.63818 3.5553C9.39276 3.80072 9.25488 4.13358 9.25488 4.48066C9.25488 4.82774 9.39276 5.16061 9.63818 5.40603C9.88361 5.65145 10.2165 5.78933 10.5635 5.78933C10.9106 5.78933 11.2435 5.65145 11.4889 5.40603C11.7343 5.16061 11.8722 4.82774 11.8722 4.48066C11.8722 4.13358 11.7343 3.80072 11.4889 3.5553C11.2435 3.30987 10.9106 3.172 10.5635 3.172Z" fill="#666875"/>
</g>
</svg>
