<svg width="29" height="27" viewBox="0 0 29 27" fill="none" xmlns="http://www.w3.org/2000/svg">
<path fill-rule="evenodd" clip-rule="evenodd" d="M4.87645 11.4604C4.87645 10.9621 5.28089 10.5576 5.77922 10.5576H15.6542C15.8937 10.5576 16.1233 10.6527 16.2926 10.822C16.4619 10.9913 16.557 11.221 16.557 11.4604C16.557 11.6998 16.4619 11.9295 16.2926 12.0988C16.1233 12.2681 15.8937 12.3632 15.6542 12.3632H5.77778C5.53835 12.3632 5.30872 12.2681 5.13942 12.0988C4.97011 11.9295 4.875 11.6998 4.875 11.4604M4.87645 15.5236C4.87645 15.0253 5.28089 14.6208 5.77922 14.6208H7.216C7.45543 14.6208 7.68506 14.716 7.85436 14.8853C8.02366 15.0546 8.11878 15.2842 8.11878 15.5236C8.11878 15.763 8.02366 15.9927 7.85436 16.162C7.68506 16.3313 7.45543 16.4264 7.216 16.4264H5.77922C5.53979 16.4264 5.31017 16.3313 5.14086 16.162C4.97156 15.9927 4.87645 15.763 4.87645 15.5236ZM4.87645 19.5854C4.87645 19.0871 5.28089 18.6826 5.77922 18.6826H7.216C7.45543 18.6826 7.68506 18.7777 7.85436 18.947C8.02366 19.1163 8.11878 19.346 8.11878 19.5854C8.11878 19.8248 8.02366 20.0545 7.85436 20.2238C7.68506 20.3931 7.45543 20.4882 7.216 20.4882H5.77922C5.53979 20.4882 5.31017 20.3931 5.14086 20.2238C4.97156 20.0545 4.87645 19.8248 4.87645 19.5854Z" fill="#666875"/>
<path fill-rule="evenodd" clip-rule="evenodd" d="M10.6542 1.80145C10.2393 1.80126 9.82832 1.88283 9.44488 2.0415C9.06145 2.20017 8.71303 2.43283 8.41954 2.72619C8.12604 3.01955 7.89322 3.36786 7.73438 3.75122C7.57553 4.13458 7.49378 4.54548 7.49378 4.96045C7.49378 5.45878 7.08933 5.86323 6.591 5.86323H2.52922C2.33768 5.86323 2.15398 5.93932 2.01853 6.07476C1.88309 6.2102 1.807 6.3939 1.807 6.58545V23.6487C1.807 23.8402 1.88309 24.0239 2.01853 24.1594C2.15398 24.2948 2.33768 24.3709 2.52922 24.3709H10.6542C10.8937 24.3709 11.1233 24.466 11.2926 24.6353C11.4619 24.8046 11.557 25.0342 11.557 25.2737C11.557 25.5131 11.4619 25.7427 11.2926 25.912C11.1233 26.0813 10.8937 26.1764 10.6542 26.1764H2.52778C1.85737 26.1764 1.21442 25.9101 0.740369 25.4361C0.266318 24.962 0 24.3191 0 23.6487V6.58545C0 5.91504 0.266318 5.27209 0.740369 4.79804C1.21442 4.32399 1.85737 4.05767 2.52778 4.05767H5.77056C5.98264 2.91774 6.58692 1.88796 7.47863 1.14684C8.37035 0.405726 9.49329 0 10.6528 0C11.8123 0 12.9352 0.405726 13.8269 1.14684C14.7186 1.88796 15.3229 2.91774 15.535 4.05767H18.7792C19.4496 4.05767 20.0926 4.32399 20.5666 4.79804C21.0407 5.27209 21.307 5.91504 21.307 6.58545V9.02367C21.307 9.2631 21.2119 9.49273 21.0426 9.66203C20.8733 9.83133 20.6437 9.92645 20.4042 9.92645C20.1648 9.92645 19.9352 9.83133 19.7659 9.66203C19.5966 9.49273 19.5014 9.2631 19.5014 9.02367V6.58545C19.5014 6.3939 19.4254 6.2102 19.2899 6.07476C19.1545 5.93932 18.9708 5.86323 18.7792 5.86323H14.716C14.4766 5.86323 14.2469 5.76811 14.0776 5.59881C13.9083 5.4295 13.8132 5.19988 13.8132 4.96045C13.8121 4.12298 13.4789 3.32014 12.8867 2.72796C12.2945 2.13579 11.4917 1.80259 10.6542 1.80145Z" fill="#666875"/>
<path fill-rule="evenodd" clip-rule="evenodd" d="M10.6544 3.24585C10.3073 3.24585 9.97443 3.38373 9.729 3.62915C9.48358 3.87457 9.3457 4.20744 9.3457 4.55452C9.3457 4.9016 9.48358 5.23446 9.729 5.47988C9.97443 5.72531 10.3073 5.86318 10.6544 5.86318C11.0014 5.86318 11.3343 5.72531 11.5797 5.47988C11.8252 5.23446 11.963 4.9016 11.963 4.55452C11.963 4.20744 11.8252 3.87457 11.5797 3.62915C11.3343 3.38373 11.0014 3.24585 10.6544 3.24585Z" fill="#666875"/>
<path fill-rule="evenodd" clip-rule="evenodd" d="M25.5803 16.231H25.5213V19.1926H25.5803C25.7409 19.2037 25.9018 19.177 26.0531 19.1143C26.2043 19.0516 26.3428 18.9542 26.4598 18.8281C26.5769 18.702 26.6701 18.5498 26.7337 18.381C26.7973 18.2121 26.8299 18.0302 26.8297 17.8464V17.6176C26.8349 17.4304 26.8058 17.2441 26.7444 17.0705C26.683 16.8968 26.5906 16.7397 26.473 16.6093C26.3554 16.4788 26.2153 16.3777 26.0616 16.3126C25.9078 16.2474 25.7439 16.2197 25.5803 16.231ZM24.2602 23.5409V11.9366L18.4847 15.4637V19.8927L24.2602 23.5409ZM17.1882 19.6907V15.8002H12.8861C12.7787 15.8002 12.6755 15.8479 12.5985 15.9334C12.5215 16.0189 12.4766 16.1353 12.4736 16.2579V19.1792C12.4766 19.3018 12.5215 19.4182 12.5985 19.5037C12.6755 19.5892 12.7787 19.6369 12.8861 19.6369L17.1882 19.6907ZM15.6795 24.2948V21.01H14.2769V24.2948C14.3075 24.4789 14.394 24.6447 14.5213 24.7629C14.6486 24.8812 14.8083 24.9442 14.9723 24.941C15.1378 24.9448 15.2992 24.8822 15.4284 24.7641C15.5576 24.6461 15.6465 24.48 15.6795 24.2948ZM10.2931 17.7118C10.2991 17.8785 10.3614 18.036 10.4669 18.1514C10.5723 18.2668 10.7128 18.3312 10.8588 18.3311H11.2124V17.106H10.8588C10.7139 17.1024 10.5734 17.1637 10.4676 17.277C10.3619 17.3903 10.2992 17.5464 10.2931 17.7118ZM25.2031 10.173C25.2953 10.2323 25.3722 10.3182 25.426 10.4222C25.4798 10.5262 25.5086 10.6446 25.5096 10.7654V14.804H25.5803C26.2237 14.7893 26.8467 15.0627 27.3159 15.5659C27.7851 16.0691 28.0632 16.762 28.0908 17.4964V17.6984C28.0847 18.0679 28.0149 18.4324 27.8854 18.7711C27.7559 19.1097 27.5692 19.416 27.3361 19.6722C27.103 19.9285 26.8279 20.1298 26.5266 20.2647C26.2254 20.3995 25.9038 20.4652 25.5803 20.4581H25.5096V24.564C25.5086 24.6848 25.4798 24.8032 25.426 24.9072C25.3722 25.0112 25.2953 25.0971 25.2031 25.1564C25.1081 25.219 25.0004 25.2519 24.8908 25.2519C24.7811 25.2519 24.6734 25.219 24.5784 25.1564L17.6243 20.8754H16.9053V24.1602C16.8327 24.6933 16.5955 25.1791 16.2367 25.5301C15.8779 25.881 15.4211 26.0739 14.9488 26.0739C14.4764 26.0739 14.0196 25.881 13.6608 25.5301C13.302 25.1791 13.0649 24.6933 12.9922 24.1602V21.01H12.8861C12.5295 21.0103 12.1823 20.8796 11.8958 20.6372C11.6093 20.3947 11.3986 20.0535 11.2949 19.6638H10.8588C10.3899 19.6638 9.94021 19.4511 9.60865 19.0724C9.27709 18.6937 9.09082 18.1801 9.09082 17.6445C9.09082 17.109 9.27709 16.5953 9.60865 16.2166C9.94021 15.8379 10.3899 15.6252 10.8588 15.6252H11.2949C11.4002 15.2366 11.6113 14.8966 11.8975 14.6545C12.1837 14.4124 12.53 14.2808 12.8861 14.279H17.6007L24.5548 10.173C24.6534 10.1081 24.7652 10.0739 24.879 10.0739C24.9928 10.0739 25.1046 10.1081 25.2031 10.173Z" fill="#666875" stroke="#666875" stroke-width="0.5"/>
</svg>
