<svg width="27" height="18" viewBox="0 0 27 18" fill="none" xmlns="http://www.w3.org/2000/svg">
<path d="M7.14706 3.70589H15.0882C15.2988 3.70589 15.5008 3.78955 15.6498 3.93848C15.7987 4.08741 15.8824 4.28939 15.8824 4.50001V10.8529C15.8824 11.0636 15.7987 11.2655 15.6498 11.4145C15.5008 11.5634 15.2988 11.6471 15.0882 11.6471H7.14706C6.93645 11.6471 6.73446 11.5634 6.58553 11.4145C6.43661 11.2655 6.35294 11.0636 6.35294 10.8529V4.50001C6.35294 4.28939 6.43661 4.08741 6.58553 3.93848C6.73446 3.78955 6.93645 3.70589 7.14706 3.70589ZM7.94118 5.29413V10.0588H14.2941V5.29413H7.94118ZM18.2647 13.2353H23.0294C23.24 13.2353 23.442 13.319 23.5909 13.4679C23.7399 13.6168 23.8235 13.8188 23.8235 14.0294C23.8235 14.24 23.7399 14.442 23.5909 14.5909C23.442 14.7399 23.24 14.8235 23.0294 14.8235H18.2647C18.0541 14.8235 17.8521 14.7399 17.7032 14.5909C17.5543 14.442 17.4706 14.24 17.4706 14.0294C17.4706 13.8188 17.5543 13.6168 17.7032 13.4679C17.8521 13.319 18.0541 13.2353 18.2647 13.2353ZM18.2647 10.0588H23.0294C23.24 10.0588 23.442 10.1425 23.5909 10.2914C23.7399 10.4403 23.8235 10.6423 23.8235 10.8529C23.8235 11.0636 23.7399 11.2655 23.5909 11.4145C23.442 11.5634 23.24 11.6471 23.0294 11.6471H18.2647C18.0541 11.6471 17.8521 11.5634 17.7032 11.4145C17.5543 11.2655 17.4706 11.0636 17.4706 10.8529C17.4706 10.6423 17.5543 10.4403 17.7032 10.2914C17.8521 10.1425 18.0541 10.0588 18.2647 10.0588ZM18.2647 3.70589H23.0294C23.24 3.70589 23.442 3.78955 23.5909 3.93848C23.7399 4.08741 23.8235 4.28939 23.8235 4.50001C23.8235 4.71062 23.7399 4.91261 23.5909 5.06153C23.442 5.21046 23.24 5.29413 23.0294 5.29413H18.2647C18.0541 5.29413 17.8521 5.21046 17.7032 5.06153C17.5543 4.91261 17.4706 4.71062 17.4706 4.50001C17.4706 4.28939 17.5543 4.08741 17.7032 3.93848C17.8521 3.78955 18.0541 3.70589 18.2647 3.70589ZM18.2647 6.88236H23.0294C23.24 6.88236 23.442 6.96603 23.5909 7.11495C23.7399 7.26388 23.8235 7.46587 23.8235 7.67648C23.8235 7.88709 23.7399 8.08908 23.5909 8.238C23.442 8.38693 23.24 8.4706 23.0294 8.4706H18.2647C18.0541 8.4706 17.8521 8.38693 17.7032 8.238C17.5543 8.08908 17.4706 7.88709 17.4706 7.67648C17.4706 7.46587 17.5543 7.26388 17.7032 7.11495C17.8521 6.96603 18.0541 6.88236 18.2647 6.88236ZM7.14706 13.2353H15.0882C15.2988 13.2353 15.5008 13.319 15.6498 13.4679C15.7987 13.6168 15.8824 13.8188 15.8824 14.0294C15.8824 14.24 15.7987 14.442 15.6498 14.5909C15.5008 14.7399 15.2988 14.8235 15.0882 14.8235H7.14706C6.93645 14.8235 6.73446 14.7399 6.58553 14.5909C6.43661 14.442 6.35294 14.24 6.35294 14.0294C6.35294 13.8188 6.43661 13.6168 6.58553 13.4679C6.73446 13.319 6.93645 13.2353 7.14706 13.2353ZM4.76471 3.70589V14.8235C4.76471 15.2448 4.93204 15.6487 5.22989 15.9466C5.52774 16.2444 5.93172 16.4118 6.35294 16.4118H23.8235C24.2448 16.4118 24.6487 16.2444 24.9466 15.9466C25.2444 15.6487 25.4118 15.2448 25.4118 14.8235V3.70589C25.4118 3.28466 25.2444 2.88069 24.9466 2.58284C24.6487 2.28499 24.2448 2.11765 23.8235 2.11765H6.35294C5.93172 2.11765 5.52774 2.28499 5.22989 2.58284C4.93204 2.88069 4.76471 3.28466 4.76471 3.70589ZM3.60529 16.4118C3.32536 15.9292 3.17746 15.3814 3.17647 14.8235V6.88236C2.75524 6.88236 2.35127 7.04969 2.05342 7.34754C1.75557 7.6454 1.58824 8.04937 1.58824 8.4706V14.8235C1.58824 15.2448 1.75557 15.6487 2.05342 15.9466C2.35127 16.2444 2.75524 16.4118 3.17647 16.4118H3.60529ZM3.17647 5.29413V3.70589C3.17647 2.86344 3.51113 2.05549 4.10684 1.45979C4.70254 0.864082 5.51049 0.529419 6.35294 0.529419H23.8235C24.666 0.529419 25.4739 0.864082 26.0696 1.45979C26.6653 2.05549 27 2.86344 27 3.70589V14.8235C27 15.666 26.6653 16.4739 26.0696 17.0696C25.4739 17.6653 24.666 18 23.8235 18H3.17647C2.33402 18 1.52607 17.6653 0.930367 17.0696C0.334663 16.4739 0 15.666 0 14.8235V8.4706C0 7.62814 0.334663 6.8202 0.930367 6.22449C1.52607 5.62879 2.33402 5.29413 3.17647 5.29413Z" fill="#666875"/>
</svg>
