<svg width="16" height="15" viewBox="0 0 16 15" fill="none" xmlns="http://www.w3.org/2000/svg">
<path d="M7.78 5.30852C7.91261 5.30852 8.03979 5.3612 8.13355 5.45497C8.22732 5.54873 8.28 5.67591 8.28 5.80852V9.80852C8.28 9.94113 8.22732 10.0683 8.13355 10.1621C8.03979 10.2558 7.91261 10.3085 7.78 10.3085C7.64739 10.3085 7.52021 10.2558 7.42645 10.1621C7.33268 10.0683 7.28 9.94113 7.28 9.80852V5.81852C7.27867 5.75202 7.29062 5.68593 7.31515 5.62411C7.33968 5.56228 7.3763 5.50598 7.42286 5.45848C7.46943 5.41099 7.525 5.37326 7.58632 5.34751C7.64764 5.32176 7.71349 5.30851 7.78 5.30852ZM7.78 11.3085C7.91261 11.3085 8.03979 11.3612 8.13355 11.455C8.22732 11.5487 8.28 11.6759 8.28 11.8085C8.28 11.9411 8.22732 12.0683 8.13355 12.1621C8.03979 12.2558 7.91261 12.3085 7.78 12.3085C7.64739 12.3085 7.52021 12.2558 7.42645 12.1621C7.33268 12.0683 7.28 11.9411 7.28 11.8085C7.28 11.6759 7.33268 11.5487 7.42645 11.455C7.52021 11.3612 7.64739 11.3085 7.78 11.3085ZM8.21 2.07852C8.1692 1.99942 8.10678 1.93353 8.03 1.88852C7.91459 1.82374 7.7782 1.80737 7.65073 1.84299C7.52327 1.8786 7.41512 1.9633 7.35 2.07852L1.07 13.0785C1.0287 13.1557 1.00481 13.2411 1 13.3285C1 13.4611 1.05268 13.5883 1.14645 13.6821C1.24021 13.7758 1.36739 13.8285 1.5 13.8285H14.06C14.1438 13.8289 14.2263 13.8083 14.3 13.7685C14.4159 13.7015 14.5008 13.5915 14.5364 13.4624C14.5719 13.3333 14.5553 13.1954 14.49 13.0785L8.21 2.07852ZM9.08 1.57852L15.36 12.5785C15.4892 12.8064 15.5565 13.0641 15.5552 13.326C15.5539 13.5879 15.4841 13.8449 15.3526 14.0715C15.2211 14.298 15.0326 14.4862 14.8058 14.6172C14.5791 14.7483 14.3219 14.8177 14.06 14.8185H1.5C1.10218 14.8185 0.720645 14.6605 0.43934 14.3792C0.158036 14.0979 0 13.7163 0 13.3185C4.78042e-05 13.0585 0.0690612 12.8032 0.2 12.5785L6.48 1.57852C6.67477 1.24302 6.99348 0.997396 7.36753 0.894532C7.74158 0.791667 8.14107 0.839782 8.48 1.02852C8.73006 1.14839 8.93888 1.33981 9.08 1.57852Z" fill="#3349E8"/>
</svg>
