<svg width="18" height="19" viewBox="0 0 18 19" fill="none" xmlns="http://www.w3.org/2000/svg">
<path d="M6.76834 13.0364C7.86745 13.0364 8.94187 12.6923 9.85575 12.0478C10.7696 11.4032 11.4819 10.4871 11.9025 9.41522C12.3231 8.34337 12.4332 7.16393 12.2187 6.02605C12.0043 4.88817 11.4751 3.84297 10.6979 3.0226C9.92068 2.20224 8.93048 1.64357 7.8525 1.41723C6.77451 1.19089 5.65714 1.30706 4.6417 1.75103C3.62626 2.19501 2.75835 2.94686 2.14771 3.91151C1.53708 4.87615 1.21116 6.01027 1.21116 7.17043C1.20953 7.94124 1.35216 8.70479 1.63086 9.41726C1.90956 10.1297 2.31883 10.7771 2.83519 11.3221C3.35155 11.8671 3.96481 12.2992 4.63978 12.5933C5.31474 12.8875 6.03811 13.0381 6.76834 13.0364ZM11.9921 11.7328L17.821 17.8985C17.8777 17.9585 17.9228 18.0296 17.9535 18.1079C17.9842 18.1861 18 18.2701 18 18.3548C18 18.4395 17.9842 18.5234 17.9535 18.6017C17.9228 18.68 17.8777 18.7511 17.821 18.811C17.7642 18.8709 17.6968 18.9185 17.6227 18.9509C17.5485 18.9833 17.469 19 17.3887 19C17.3085 19 17.229 18.9833 17.1548 18.9509C17.0807 18.9185 17.0133 18.8709 16.9565 18.811L11.1153 12.6583C9.77421 13.8358 8.05476 14.4223 6.31449 14.296C4.57422 14.1696 2.94706 13.3401 1.77134 11.9798C0.595631 10.6196 -0.0381535 8.83341 0.00177856 6.9926C0.0417106 5.15179 0.752285 3.39806 1.98575 2.09607C3.21921 0.794079 4.88064 0.0440279 6.62456 0.00187737C8.36849 -0.0402731 10.0607 0.628721 11.3493 1.86975C12.638 3.11078 13.4238 4.82834 13.5435 6.66529C13.6633 8.50224 13.1076 10.3172 11.9921 11.7328Z" fill="#3349E8"/>
</svg>
