<svg width="158" height="46" viewBox="0 0 158 46" fill="none" xmlns="http://www.w3.org/2000/svg">
<rect x="0.5" y="0.5" width="157" height="45" rx="4.5" stroke="#F0F1FA"/>
<path d="M138.047 20.074C138.29 19.8312 138.683 19.8312 138.926 20.074C139.169 20.3167 139.169 20.7103 138.926 20.9531L133.953 25.926C133.71 26.1688 133.317 26.1688 133.074 25.926L128.101 20.9531C127.858 20.7103 127.858 20.3167 128.101 20.074C128.344 19.8312 128.737 19.8312 128.98 20.074L133.514 24.6074L138.047 20.074Z" fill="#3349E8"/>
<path fill-rule="evenodd" clip-rule="evenodd" d="M22.973 12.9324C22.973 12.6563 23.1968 12.4324 23.473 12.4324H23.7162C23.9924 12.4324 24.2162 12.6563 24.2162 12.9324V14.2973H24.2163V15.5405H24.2162V16.9054C24.2162 17.1815 23.9924 17.4054 23.7162 17.4054H23.473C23.1968 17.4054 22.973 17.1815 22.973 16.9054V16.2907L22.973 16.2838V13.5541L22.973 13.5472V12.9324ZM25.4595 15.5405H30.4325V14.2973H25.4595V15.5405ZM31.6757 16.9054V16.2906L31.6757 16.2838V13.5541L31.6757 13.5472V12.9324C31.6757 12.6563 31.8995 12.4324 32.1757 12.4324H32.4189C32.6951 12.4324 32.9189 12.6563 32.9189 12.9324V14.2973H32.919V15.5405H32.9189V16.9054C32.9189 17.1815 32.6951 17.4054 32.4189 17.4054H32.1757C31.8995 17.4054 31.6757 17.1815 31.6757 16.9054ZM34.1622 15.5405H35.3098C36.0493 15.5405 36.6487 16.0543 36.6487 16.6882V29.3119C36.6487 29.9457 36.0493 30.4595 35.3098 30.4595H20.5822C19.8427 30.4595 19.2433 29.9457 19.2433 29.3119V16.6882C19.2433 16.0543 19.8427 15.5405 20.5822 15.5405H21.7298V14.2973H20.6523C19.1875 14.2973 18 15.3363 18 16.618V29.382C18 30.6637 19.1875 31.7027 20.6523 31.7027H35.2396C36.7044 31.7027 37.8919 30.6637 37.8919 29.382V16.618C37.8919 15.3363 36.7044 14.2973 35.2396 14.2973H34.1622V15.5405ZM21.1081 27.8514C21.1081 27.5752 21.332 27.3514 21.6081 27.3514H34.2838C34.5599 27.3514 34.7838 27.5752 34.7838 27.8514V28.0946C34.7838 28.3707 34.5599 28.5946 34.2838 28.5946H21.6081C21.332 28.5946 21.1081 28.3707 21.1081 28.0946V27.8514ZM21.6081 18.6486C21.332 18.6486 21.1081 18.8725 21.1081 19.1486V19.3919C21.1081 19.668 21.332 19.8919 21.6081 19.8919H34.2838C34.5599 19.8919 34.7838 19.668 34.7838 19.3919V19.1486C34.7838 18.8725 34.5599 18.6486 34.2838 18.6486H21.6081Z" fill="#3349E8"/>
<rect x="21.1084" y="18.6487" width="1.24324" height="9.94595" rx="0.621622" fill="#3349E8"/>
<rect x="27.3242" y="18.6487" width="1.24324" height="9.94595" rx="0.621622" fill="#3349E8"/>
<rect x="33.5405" y="18.6487" width="1.24324" height="9.94595" rx="0.621622" fill="#3349E8"/>
<path d="M48.0469 28V18.6621H50.0498V26.25H53.9941V28H48.0469ZM54.7803 25.9287C54.7803 25.1904 55.0127 24.6413 55.4775 24.2812C55.9424 23.9212 56.4893 23.7412 57.1182 23.7412C58.0798 23.7412 58.793 24.0169 59.2578 24.5684V23.7139C59.2578 23.3675 59.1211 23.0918 58.8477 22.8867C58.5788 22.6816 58.221 22.5791 57.7744 22.5791C57.0544 22.5791 56.4049 22.8457 55.8262 23.3789L55.1289 22.1348C55.9219 21.4238 56.9062 21.0684 58.082 21.0684C58.9479 21.0684 59.6589 21.2689 60.2148 21.6699C60.7708 22.071 61.0488 22.7249 61.0488 23.6318V28H59.2578V27.2891C58.7747 27.877 58.0615 28.1709 57.1182 28.1709C56.5212 28.1709 55.9811 27.9727 55.498 27.5762C55.0195 27.1797 54.7803 26.6305 54.7803 25.9287ZM56.9199 25.2109C56.6784 25.3978 56.5576 25.6462 56.5576 25.9561C56.5576 26.266 56.6784 26.512 56.9199 26.6943C57.1615 26.8721 57.4645 26.9609 57.8291 26.9609C58.4899 26.9609 58.9661 26.765 59.2578 26.373V25.5391C58.957 25.138 58.4808 24.9352 57.8291 24.9307C57.4645 24.9307 57.1615 25.0241 56.9199 25.2109ZM62.2109 27.1182L62.9834 25.833C63.2523 26.0837 63.6077 26.3024 64.0498 26.4893C64.4964 26.6761 64.9202 26.7695 65.3213 26.7695C66.0778 26.7695 66.4561 26.5303 66.4561 26.0518C66.4561 25.8831 66.3581 25.7464 66.1621 25.6416C65.9661 25.5322 65.7178 25.457 65.417 25.416C65.1162 25.375 64.7926 25.3066 64.4463 25.2109C64.1045 25.1107 63.7832 24.999 63.4824 24.876C63.1862 24.7484 62.9401 24.5433 62.7441 24.2607C62.5482 23.9736 62.4502 23.6204 62.4502 23.2012C62.4502 22.6042 62.6963 22.1006 63.1885 21.6904C63.6852 21.2757 64.362 21.0684 65.2188 21.0684C66.2533 21.0684 67.1602 21.376 67.9395 21.9912L67.2217 23.2559C67.0075 23.0326 66.7181 22.8457 66.3535 22.6953C65.9889 22.5449 65.6107 22.4697 65.2188 22.4697C64.8997 22.4697 64.6423 22.5312 64.4463 22.6543C64.2549 22.7728 64.1592 22.93 64.1592 23.126C64.1592 23.3037 64.2959 23.4427 64.5693 23.543C64.8473 23.6387 65.1846 23.7253 65.5811 23.8027C65.9775 23.8757 66.3717 23.9759 66.7637 24.1035C67.1556 24.2266 67.4883 24.4499 67.7617 24.7734C68.0352 25.097 68.1719 25.5094 68.1719 26.0107C68.1719 26.6442 67.9098 27.1637 67.3857 27.5693C66.8662 27.9704 66.1484 28.1709 65.2324 28.1709C64.6445 28.1709 64.0817 28.0775 63.5439 27.8906C63.0107 27.7038 62.5664 27.4463 62.2109 27.1182ZM68.7119 22.791V21.2393H69.833V19.3867H71.6104V21.2393H72.9844V22.791H71.6104V25.833C71.6104 26.0563 71.6628 26.2386 71.7676 26.3799C71.877 26.5166 72.0296 26.585 72.2256 26.585C72.5127 26.585 72.7201 26.5143 72.8477 26.373L73.2236 27.7334C72.8955 28.0205 72.401 28.1663 71.7402 28.1709C70.4688 28.1709 69.833 27.5488 69.833 26.3047V22.791H68.7119ZM77.25 20.4121V18.6621H84.2637V20.0498L80.791 28H78.6104L81.9531 20.4121H77.25ZM88.5908 24.6094C88.5908 23.5247 88.8688 22.6634 89.4248 22.0254C89.9854 21.3874 90.7054 21.0684 91.585 21.0684C92.4508 21.0684 93.1458 21.4147 93.6699 22.1074V18.6621H95.4609V28H93.6699V27.1318C93.1185 27.8245 92.4235 28.1709 91.585 28.1709C90.7054 28.1709 89.9854 27.8542 89.4248 27.2207C88.8688 26.5827 88.5908 25.7122 88.5908 24.6094ZM90.4229 24.6094C90.4229 25.1973 90.5801 25.6735 90.8945 26.0381C91.2135 26.4027 91.6305 26.585 92.1455 26.585C92.4463 26.585 92.738 26.5143 93.0205 26.373C93.3031 26.2272 93.5195 26.0426 93.6699 25.8193V23.4199C93.5195 23.1966 93.3008 23.0143 93.0137 22.873C92.7311 22.7272 92.4417 22.6543 92.1455 22.6543C91.6305 22.6543 91.2135 22.8366 90.8945 23.2012C90.5801 23.5612 90.4229 24.0306 90.4229 24.6094ZM96.8076 25.9287C96.8076 25.1904 97.04 24.6413 97.5049 24.2812C97.9697 23.9212 98.5166 23.7412 99.1455 23.7412C100.107 23.7412 100.82 24.0169 101.285 24.5684V23.7139C101.285 23.3675 101.148 23.0918 100.875 22.8867C100.606 22.6816 100.248 22.5791 99.8018 22.5791C99.0817 22.5791 98.4323 22.8457 97.8535 23.3789L97.1562 22.1348C97.9492 21.4238 98.9336 21.0684 100.109 21.0684C100.975 21.0684 101.686 21.2689 102.242 21.6699C102.798 22.071 103.076 22.7249 103.076 23.6318V28H101.285V27.2891C100.802 27.877 100.089 28.1709 99.1455 28.1709C98.5485 28.1709 98.0085 27.9727 97.5254 27.5762C97.0469 27.1797 96.8076 26.6305 96.8076 25.9287ZM98.9473 25.2109C98.7057 25.3978 98.585 25.6462 98.585 25.9561C98.585 26.266 98.7057 26.512 98.9473 26.6943C99.1888 26.8721 99.4919 26.9609 99.8564 26.9609C100.517 26.9609 100.993 26.765 101.285 26.373V25.5391C100.984 25.138 100.508 24.9352 99.8564 24.9307C99.4919 24.9307 99.1888 25.0241 98.9473 25.2109ZM103.862 21.2393H105.763L107.526 25.9424L109.304 21.2393H111.211L108.032 29.1074C107.8 29.7044 107.472 30.1214 107.048 30.3584C106.629 30.5954 106.102 30.723 105.469 30.7412C105.113 30.7412 104.824 30.7048 104.601 30.6318L104.854 29.0527C105.022 29.1257 105.209 29.1621 105.414 29.1621C105.888 29.1621 106.2 28.998 106.351 28.6699L106.604 28.082L103.862 21.2393ZM111.416 27.1182L112.188 25.833C112.457 26.0837 112.813 26.3024 113.255 26.4893C113.701 26.6761 114.125 26.7695 114.526 26.7695C115.283 26.7695 115.661 26.5303 115.661 26.0518C115.661 25.8831 115.563 25.7464 115.367 25.6416C115.171 25.5322 114.923 25.457 114.622 25.416C114.321 25.375 113.998 25.3066 113.651 25.2109C113.31 25.1107 112.988 24.999 112.688 24.876C112.391 24.7484 112.145 24.5433 111.949 24.2607C111.753 23.9736 111.655 23.6204 111.655 23.2012C111.655 22.6042 111.901 22.1006 112.394 21.6904C112.89 21.2757 113.567 21.0684 114.424 21.0684C115.458 21.0684 116.365 21.376 117.145 21.9912L116.427 23.2559C116.213 23.0326 115.923 22.8457 115.559 22.6953C115.194 22.5449 114.816 22.4697 114.424 22.4697C114.105 22.4697 113.847 22.5312 113.651 22.6543C113.46 22.7728 113.364 22.93 113.364 23.126C113.364 23.3037 113.501 23.4427 113.774 23.543C114.052 23.6387 114.39 23.7253 114.786 23.8027C115.183 23.8757 115.577 23.9759 115.969 24.1035C116.361 24.2266 116.693 24.4499 116.967 24.7734C117.24 25.097 117.377 25.5094 117.377 26.0107C117.377 26.6442 117.115 27.1637 116.591 27.5693C116.071 27.9704 115.354 28.1709 114.438 28.1709C113.85 28.1709 113.287 28.0775 112.749 27.8906C112.216 27.7038 111.771 27.4463 111.416 27.1182Z" fill="#3349E8"/>
</svg>
