<svg width="25" height="26" viewBox="0 0 25 26" fill="none" xmlns="http://www.w3.org/2000/svg">
<path d="M9.40048 17.8392C10.927 17.8392 12.4193 17.3684 13.6885 16.4864C14.9578 15.6044 15.9471 14.3507 16.5313 12.884C17.1154 11.4172 17.2683 9.80327 16.9705 8.24617C16.6727 6.68908 15.9376 5.2588 14.8581 4.1362C13.7787 3.01359 12.4035 2.24909 10.9062 1.93937C9.40904 1.62964 7.85714 1.7886 6.44681 2.39615C5.03647 3.0037 3.83104 4.03255 2.98294 5.35259C2.13484 6.67263 1.68217 8.22457 1.68217 9.81217C1.6799 10.867 1.878 11.9118 2.26508 12.8868C2.65216 13.8617 3.2206 14.7475 3.93776 15.4934C4.65493 16.2392 5.50669 16.8304 6.44413 17.233C7.38158 17.6355 8.38626 17.8416 9.40048 17.8392ZM16.6557 16.0554L24.7513 24.4927C24.8302 24.5747 24.8927 24.6721 24.9354 24.7792C24.978 24.8863 25 25.0011 25 25.1171C25 25.233 24.978 25.3478 24.9354 25.455C24.8927 25.5621 24.8302 25.6594 24.7513 25.7414C24.6725 25.8234 24.5789 25.8884 24.4759 25.9328C24.3729 25.9772 24.2625 26 24.151 26C24.0395 26 23.9291 25.9772 23.8261 25.9328C23.7231 25.8884 23.6296 25.8234 23.5507 25.7414L15.4379 17.3219C13.5753 18.9332 11.1872 19.7358 8.77012 19.5629C6.35308 19.39 4.09313 18.2548 2.4602 16.3935C0.827265 14.5321 -0.0529909 12.0878 0.00247023 9.56882C0.0579314 7.04982 1.04484 4.64997 2.75798 2.8683C4.47113 1.08663 6.77867 0.0602487 9.20078 0.00256904C11.6229 -0.0551106 13.9732 0.860355 15.763 2.55861C17.5527 4.25686 18.6442 6.60721 18.8105 9.12093C18.9767 11.6346 18.205 14.1183 16.6557 16.0554Z" fill="#666875"/>
</svg>
