<svg width="19" height="19" viewBox="0 0 19 19" fill="none" xmlns="http://www.w3.org/2000/svg">
<path d="M4.29228 11.0011C4.29228 10.8426 4.35524 10.6906 4.46732 10.5785C4.57939 10.4664 4.7314 10.4034 4.8899 10.4034C5.0484 10.4034 5.2004 10.4664 5.31248 10.5785C5.42456 10.6906 5.48752 10.8426 5.48752 11.0011C5.48752 13.1884 7.28039 14.5868 9.67088 14.5868C12.0614 14.5868 13.8542 13.1943 13.8542 11.0011C13.8542 10.8426 13.9172 10.6906 14.0293 10.5785C14.1413 10.4664 14.2934 10.4034 14.4519 10.4034C14.6104 10.4034 14.7624 10.4664 14.8744 10.5785C14.9865 10.6906 15.0495 10.8426 15.0495 11.0011C15.0495 13.9294 12.659 15.782 9.67088 15.782C6.68276 15.782 4.29228 13.9234 4.29228 11.0011ZM12.659 8.61058C12.4226 8.61058 12.1915 8.54048 11.9949 8.40914C11.7984 8.27781 11.6452 8.09114 11.5547 7.87274C11.4643 7.65433 11.4406 7.41401 11.4867 7.18215C11.5328 6.9503 11.6467 6.73733 11.8138 6.57017C11.981 6.40301 12.194 6.28918 12.4258 6.24306C12.6577 6.19694 12.898 6.22061 13.1164 6.31107C13.3348 6.40154 13.5215 6.55474 13.6528 6.75129C13.7841 6.94785 13.8542 7.17894 13.8542 7.41534C13.8542 7.73233 13.7283 8.03635 13.5042 8.2605C13.28 8.48465 12.976 8.61058 12.659 8.61058ZM6.68276 8.61058C6.44637 8.61058 6.21528 8.54048 6.01872 8.40914C5.82217 8.27781 5.66897 8.09114 5.5785 7.87274C5.48804 7.65433 5.46437 7.41401 5.51049 7.18215C5.55661 6.9503 5.67044 6.73733 5.8376 6.57017C6.00476 6.40301 6.21773 6.28918 6.44958 6.24306C6.68144 6.19694 6.92176 6.22061 7.14016 6.31107C7.35857 6.40154 7.54524 6.55474 7.67657 6.75129C7.80791 6.94785 7.87801 7.17894 7.87801 7.41534C7.87801 7.73233 7.75208 8.03635 7.52793 8.2605C7.30378 8.48465 6.99976 8.61058 6.68276 8.61058ZM5.48752 2.03674C4.53652 2.03674 3.62448 2.41452 2.95202 3.08697C2.27957 3.75943 1.90179 4.67147 1.90179 5.62247V13.9892C1.90179 14.9402 2.27957 15.8522 2.95202 16.5247C3.62448 17.1971 4.53652 17.5749 5.48752 17.5749H13.8542C14.8052 17.5749 15.7173 17.1971 16.3897 16.5247C17.0622 15.8522 17.44 14.9402 17.44 13.9892V5.62247C17.44 4.67147 17.0622 3.75943 16.3897 3.08697C15.7173 2.41452 14.8052 2.03674 13.8542 2.03674H5.48752ZM5.48752 0.841492H13.8542C15.1222 0.841492 16.3383 1.3452 17.2349 2.24181C18.1315 3.13841 18.6352 4.35447 18.6352 5.62247V13.9892C18.6352 15.2572 18.1315 16.4732 17.2349 17.3698C16.3383 18.2664 15.1222 18.7702 13.8542 18.7702H5.48752C4.21953 18.7702 3.00347 18.2664 2.10686 17.3698C1.21025 16.4732 0.706543 15.2572 0.706543 13.9892V5.62247C0.706543 4.35447 1.21025 3.13841 2.10686 2.24181C3.00347 1.3452 4.21953 0.841492 5.48752 0.841492Z" fill="#3349E8"/>
</svg>
