<svg width="21" height="18" viewBox="0 0 21 18" fill="none" xmlns="http://www.w3.org/2000/svg">
<path d="M1.20238 16.7227L1.02965 15.8303C0.76436 13.9114 1.00461 11.9566 1.72664 10.1591C2.44866 8.3616 3.62744 6.78375 5.14638 5.58161C7.03744 4.16928 9.35091 3.43871 11.7101 3.50885V1.00427C11.7166 0.806236 11.7797 0.614208 11.8919 0.450935C12.0042 0.287663 12.1609 0.159989 12.3435 0.0830412C12.531 0.00661913 12.7356 -0.0176744 12.9358 0.0127332C13.136 0.0431407 13.3242 0.127117 13.4806 0.255771L20.6777 6.53163C20.7791 6.62209 20.8603 6.73298 20.9158 6.85701C20.9714 6.98105 21.0001 7.11542 21.0001 7.25133C21.0001 7.38725 20.9714 7.52162 20.9158 7.64565C20.8603 7.76969 20.7791 7.88057 20.6777 7.97104L13.4806 14.3045C13.3272 14.4384 13.1396 14.5269 12.9387 14.5599C12.7378 14.593 12.5316 14.5693 12.3435 14.4916C12.1639 14.4105 12.0099 14.2817 11.8983 14.1193C11.7866 13.957 11.7215 13.7671 11.7101 13.5704V10.965C11.2309 10.9307 10.7499 10.9307 10.2707 10.965C8.72707 11.1832 7.25661 11.7622 5.97863 12.655C4.70065 13.5478 3.65115 14.7294 2.91528 16.1037L2.55543 16.6795L1.20238 16.7227ZM2.64179 16.7227L2.51225 16.9098C2.45462 17.0157 2.36921 17.1038 2.26521 17.1646C2.16122 17.2255 2.04258 17.2568 1.92209 17.2553H1.76375C1.65202 17.2329 1.54703 17.1849 1.45709 17.1149C1.36715 17.045 1.29473 16.955 1.24556 16.8522L2.64179 16.7227ZM2.46906 15.4992C2.46906 15.4992 2.46906 15.3696 2.33952 15.1681L2.42588 15.3409V15.4416L2.46906 15.4992ZM11.8397 9.51122L13.1927 9.58319V12.7067L19.4254 7.26573L13.1495 1.88231V4.90509H11.7101C9.64619 4.81195 7.61309 5.43205 5.95245 6.66117C4.12198 8.09074 2.87372 10.1371 2.44028 12.4188C2.34413 13.1005 2.31521 13.7899 2.35391 14.4772C3.34633 12.8877 4.74417 11.5912 6.40372 10.7209C8.06327 9.85066 9.92464 9.43809 11.7965 9.52561L11.8397 9.51122ZM2.61301 16.4492L1.93648 16.5788L1.76375 17.2697V16.6219L1.20238 16.7227V16.5931H1.79254V15.8303C1.69456 15.8443 1.60053 15.8784 1.51632 15.9304C1.43212 15.9824 1.35954 16.0512 1.30314 16.1325L1.77814 15.384C1.96527 15.0674 2.18118 14.7651 2.3827 14.4772V15.4704C2.3827 15.4704 2.3827 15.7871 2.55543 16.3772C2.52601 16.2332 2.45404 16.1013 2.34881 15.9987C2.24359 15.896 2.10998 15.8273 1.96527 15.8015L1.85011 16.4636L2.61301 16.4492ZM1.95087 16.4492V16.5212H1.82133V16.4348L1.95087 16.4492Z" fill="#666875"/>
</svg>
