<svg width="17" height="14" viewBox="0 0 17 14" fill="none" xmlns="http://www.w3.org/2000/svg">
<path d="M0.791674 13.4202L0.654531 12.7116C0.4439 11.1881 0.634654 9.63602 1.20792 8.20886C1.78119 6.7817 2.71711 5.52893 3.9231 4.57447C5.42455 3.45312 7.26139 2.87306 9.13453 2.92875V0.940183C9.13966 0.782952 9.18976 0.630487 9.27888 0.500853C9.36801 0.371218 9.49242 0.269849 9.63739 0.208755C9.78626 0.148078 9.94877 0.128789 10.1077 0.152932C10.2667 0.177075 10.4161 0.24375 10.5402 0.345897L16.2545 5.32876C16.3351 5.40059 16.3995 5.48863 16.4436 5.5871C16.4877 5.68558 16.5106 5.79227 16.5106 5.90018C16.5106 6.00809 16.4877 6.11479 16.4436 6.21326C16.3995 6.31174 16.3351 6.39978 16.2545 6.47161L10.5402 11.5002C10.4185 11.6065 10.2695 11.6767 10.11 11.703C9.95046 11.7292 9.7868 11.7105 9.63739 11.6488C9.49479 11.5843 9.37255 11.4821 9.28391 11.3532C9.19527 11.2243 9.14361 11.0735 9.13453 10.9173V8.84875C8.75407 8.82151 8.37214 8.82151 7.99167 8.84875C6.76607 9.02196 5.59857 9.48166 4.58389 10.1905C3.5692 10.8994 2.73593 11.8375 2.15167 12.9288L1.86596 13.3859L0.791674 13.4202ZM1.93453 13.4202L1.83167 13.5688C1.78592 13.6528 1.71811 13.7227 1.63554 13.7711C1.55297 13.8194 1.45877 13.8443 1.3631 13.843H1.23739C1.14868 13.8253 1.06532 13.7871 0.993911 13.7316C0.922501 13.6761 0.865 13.6046 0.82596 13.523L1.93453 13.4202ZM1.79739 12.4488C1.79739 12.4488 1.79739 12.3459 1.69453 12.1859L1.7631 12.323V12.403L1.79739 12.4488ZM9.23739 7.69447L10.3117 7.75161V10.2316L15.2602 5.91161L10.2774 1.63733V4.03733H9.13453C7.49583 3.96338 5.88161 4.45572 4.5631 5.43161C3.10976 6.56665 2.11867 8.19139 1.77453 10.003C1.6982 10.5442 1.67523 11.0916 1.70596 11.6373C2.49391 10.3753 3.60376 9.34589 4.92139 8.65493C6.23903 7.96398 7.71691 7.63641 9.2031 7.7059L9.23739 7.69447ZM1.91167 13.203L1.37453 13.3059L1.23739 13.8545V13.3402L0.791674 13.4202V13.3173H1.26025V12.7116C1.18246 12.7227 1.1078 12.7498 1.04094 12.7911C0.974082 12.8324 0.916459 12.887 0.871674 12.9516L1.24882 12.3573C1.39739 12.1059 1.56882 11.8659 1.72882 11.6373V12.4259C1.72882 12.4259 1.72882 12.6773 1.86596 13.1459C1.8426 13.0315 1.78546 12.9268 1.70191 12.8453C1.61837 12.7638 1.51228 12.7093 1.39739 12.6888L1.30596 13.2145L1.91167 13.203ZM1.38596 13.203V13.2602H1.2831V13.1916L1.38596 13.203Z" fill="white"/>
</svg>
