<svg width="14" height="16" viewBox="0 0 14 16" fill="none" xmlns="http://www.w3.org/2000/svg">
<path fill-rule="evenodd" clip-rule="evenodd" d="M8.7145 4.57143C8.87623 4.58317 9.02684 4.65808 9.13377 4.77999C9.2407 4.90189 9.29536 5.06098 9.28592 5.22286V13.0629C9.28592 13.2144 9.22572 13.3598 9.11856 13.4669C9.01139 13.5741 8.86605 13.6343 8.7145 13.6343C8.56294 13.6343 8.4176 13.5741 8.31043 13.4669C8.20327 13.3598 8.14307 13.2144 8.14307 13.0629V5.22286C8.13363 5.06098 8.18829 4.90189 8.29522 4.77999C8.40215 4.65808 8.55277 4.58317 8.7145 4.57143ZM5.28592 4.57143C5.44765 4.58317 5.59827 4.65808 5.7052 4.77999C5.81213 4.90189 5.86679 5.06098 5.85735 5.22286V13.0629C5.85735 13.2144 5.79715 13.3598 5.68999 13.4669C5.58282 13.5741 5.43748 13.6343 5.28592 13.6343C5.13437 13.6343 4.98903 13.5741 4.88186 13.4669C4.7747 13.3598 4.7145 13.2144 4.7145 13.0629V5.22286C4.70506 5.06098 4.75972 4.90189 4.86665 4.77999C4.97358 4.65808 5.12419 4.58317 5.28592 4.57143ZM3.00021 14.8571H11.0002C11.1518 14.8571 11.2971 14.7969 11.4043 14.6898C11.5114 14.5826 11.5716 14.4373 11.5716 14.2857V5.14286C11.5716 4.9913 11.6318 4.84596 11.739 4.7388C11.8462 4.63163 11.9915 4.57143 12.1431 4.57143C12.2946 4.57143 12.44 4.63163 12.5471 4.7388C12.6543 4.84596 12.7145 4.9913 12.7145 5.14286V14.8571C12.7145 15.1602 12.5941 15.4509 12.3798 15.6653C12.1654 15.8796 11.8747 16 11.5716 16H2.42878C2.12568 16 1.83499 15.8796 1.62066 15.6653C1.40633 15.4509 1.28592 15.1602 1.28592 14.8571V5.14286C1.28592 4.9913 1.34613 4.84596 1.45329 4.7388C1.56045 4.63163 1.7058 4.57143 1.85735 4.57143C2.0089 4.57143 2.15425 4.63163 2.26141 4.7388C2.36858 4.84596 2.42878 4.9913 2.42878 5.14286V14.2857C2.42878 14.4373 2.48898 14.5826 2.59615 14.6898C2.70331 14.7969 2.84866 14.8571 3.00021 14.8571ZM10.4288 1.14286V2.28571H13.2859C13.4375 2.28571 13.5828 2.34592 13.69 2.45308C13.7971 2.56025 13.8574 2.70559 13.8574 2.85714C13.8574 3.0087 13.7971 3.15404 13.69 3.2612C13.5828 3.36837 13.4375 3.42857 13.2859 3.42857H0.714495C0.562943 3.42857 0.417598 3.36837 0.310434 3.2612C0.20327 3.15404 0.143066 3.0087 0.143066 2.85714C0.143066 2.70559 0.20327 2.56025 0.310434 2.45308C0.417598 2.34592 0.562943 2.28571 0.714495 2.28571H3.57164V1.14286C3.57164 0.839753 3.69205 0.549063 3.90637 0.334735C4.1207 0.120408 4.41139 0 4.7145 0H9.28592C9.58903 0 9.87972 0.120408 10.094 0.334735C10.3084 0.549063 10.4288 0.839753 10.4288 1.14286ZM4.7145 1.14286V2.28571H9.28592V1.14286H4.7145Z" fill="white"/>
</svg>
